<svg xmlns="http://www.w3.org/2000/svg" viewBox="0 0 256 256">
	<style type="text/css">
		.st0{fill:#F4A01D;}
		.st1{fill:#E42628;}
		.st2{fill:#F8AE34;}
	</style>
	<rect class="st0" width="256" height="256"/>
		<path class="st1" d="M19.34,42.32c0,3.08-0.03,6.25,0.02,9.42c0.01,0.92-0.28,1.23-1.2,1.19c-2.33-0.09-2.17,0.38-2.18-2.19
			c-0.01-3.62,0.02-7.25-0.02-10.87c-0.01-0.97,0.25-1.41,1.3-1.31c1.27,0.11,2.87-0.33,3.75,0.29c0.83,0.58,0.94,2.22,1.34,3.41
			c0.34,0.99,0.64,1.99,0.95,2.99c0.3,0.96,0.58,1.92,0.93,3.1c0.95-2.91,1.89-5.6,2.67-8.32c0.33-1.16,0.86-1.59,2.05-1.46
			c0.93,0.1,1.89-0.03,2.82,0.06c0.27,0.03,0.72,0.45,0.72,0.7c0.04,4.29,0.04,8.57,0,12.86c0,0.25-0.45,0.68-0.72,0.71
			c-2.71,0.3-2.71,0.28-2.71-2.43c0-2.68,0-5.36,0-8.04c-0.04-0.01-0.08-0.02-0.12-0.03c-0.68,2.17-1.36,4.35-2.05,6.52
			c-0.33,1.06-0.7,2.12-1,3.19c-0.17,0.6-0.48,0.85-1.11,0.84c-2.87-0.06-2.17,0.36-2.94-2.13C20.97,47.93,20.15,45.05,19.34,42.32z"
			/>
		<path class="st1" d="M25,19.91c-0.88,3.2-1.7,6.15-2.48,9.11c-0.17,0.66-0.48,0.89-1.16,0.9c-2.93,0.06-2.93,0.08-3.74-2.74
			c-0.97-3.41-1.93-6.83-2.89-10.24c-0.11-0.39-0.18-0.8-0.31-1.37c1.16,0,2.2-0.07,3.22,0.04c0.28,0.03,0.64,0.57,0.73,0.93
			c0.81,3.08,1.56,6.18,2.3,9.14c0.8-2.95,1.67-6.03,2.46-9.12c0.21-0.81,0.59-1.05,1.38-1.02c2.88,0.08,2.23-0.4,3,2.31
			c0.75,2.64,1.41,5.31,2.13,8.05c0.65-2.63,1.28-5.19,1.91-7.75c0.67-2.7,0.67-2.7,3.47-2.58c0.2,0.01,0.41,0.05,0.71,0.08
			c-0.06,0.35-0.07,0.65-0.16,0.93c-1.23,4.1-2.47,8.19-3.68,12.3c-0.22,0.75-0.56,1.08-1.38,1.05c-3.48-0.13-2.62,0.61-3.59-2.76
			C26.26,24.82,25.68,22.46,25,19.91z"/>
		<path class="st1" d="M20.69,71.89c0.81-2.96,1.67-6.04,2.47-9.14c0.19-0.74,0.52-1.02,1.29-1c2.99,0.08,2.31-0.41,3.09,2.33
			c0.75,2.64,1.41,5.31,2.12,8.01c0.7-2.81,1.37-5.59,2.08-8.37c0.58-2.26,0.13-1.92,2.49-1.96c0.48-0.01,0.96,0,1.55,0
			c-0.08,0.45-0.11,0.76-0.2,1.04c-1.23,4.1-2.47,8.19-3.68,12.3c-0.22,0.76-0.6,1.05-1.4,1.02c-3.44-0.13-2.59,0.62-3.57-2.79
			c-0.67-2.33-1.25-4.67-1.93-7.23c-0.81,3-1.62,5.76-2.28,8.55c-0.28,1.17-0.8,1.55-2,1.49c-2.8-0.15-2.14,0.41-2.93-2.28
			c-1.03-3.5-2-7.03-2.98-10.54c-0.13-0.46-0.22-0.92-0.37-1.54c1.18,0,2.22-0.06,3.25,0.04c0.26,0.03,0.59,0.52,0.68,0.86
			C19.17,65.78,19.93,68.88,20.69,71.89z"/>
		<path class="st1" d="M65.73,24.94c0-2.74,0.03-5.44-0.01-8.15c-0.01-0.94,0.27-1.29,1.25-1.26c2.46,0.09,2.14-0.28,2.15,2.2
			c0.02,3.62-0.03,7.24,0.02,10.87c0.01,0.98-0.28,1.23-1.28,1.35c-2.04,0.24-3.24-0.48-4.2-2.3c-1.33-2.52-2.97-4.87-4.48-7.3
			c-0.1-0.16-0.22-0.32-0.51-0.74c0,1.07,0,1.86,0,2.64c0,2.19-0.03,4.39,0.01,6.58c0.02,0.83-0.28,1.1-1.09,1.07
			c-2.52-0.08-2.28,0.39-2.29-2.28c-0.01-3.59,0.03-7.18-0.02-10.76c-0.01-1.05,0.36-1.26,1.37-1.37c2.18-0.25,3.5,0.52,4.56,2.47
			C62.54,20.4,64.21,22.63,65.73,24.94z"/>
		<path class="st1" d="M15.99,91.92c0-2.02,0.02-4.04-0.01-6.06c-0.01-0.78,0.23-1.13,1.08-1.1c2.5,0.11,5.04-0.11,7.5,0.27
			c3.61,0.56,5.79,3.78,5.43,7.4c-0.38,3.79-3.2,6.58-6.82,6.68c-2.05,0.06-4.11-0.02-6.17,0.03c-0.81,0.02-1.02-0.34-1.02-1.06
			C16,96.03,15.99,93.97,15.99,91.92z M19.73,91.85c0,0.87-0.01,1.74,0,2.61c0.02,2.34-0.24,2.02,2.08,2.02
			c2.5,0.01,3.83-1.11,4.27-3.51c0.63-3.44-1.11-5.55-4.6-5.55c-0.28,0-0.56,0.02-0.83,0c-0.67-0.06-0.95,0.22-0.93,0.9
			C19.75,89.49,19.73,90.67,19.73,91.85z"/>
		<path class="st1" d="M53.53,66.27c2.05-1.47,3.93-1.36,5.99,0.49c0.95-0.97,2.09-1.49,3.51-1.44c2.08,0.07,3.61,1.26,3.77,3.31
			c0.17,2.22,0.12,4.45,0.17,6.68c0.01,0.55-0.22,0.82-0.82,0.81c-3.17-0.05-2.66,0.41-2.7-2.49c-0.02-1.29,0.02-2.58-0.02-3.87
			c-0.03-1.14-0.58-1.76-1.49-1.79c-0.95-0.03-1.72,0.7-1.76,1.82c-0.06,1.6-0.02,3.21-0.03,4.81c0,1.51,0,1.52-1.47,1.51
			c-2.21-0.02-1.97,0.25-1.98-1.93c-0.01-1.36,0.01-2.72-0.01-4.08c-0.02-1.39-0.51-2.06-1.5-2.13c-1.06-0.08-1.82,0.65-1.9,2.04
			c-0.09,1.56-0.03,3.14-0.04,4.7c-0.01,1.4-0.01,1.41-1.36,1.4c-2.24-0.02-2.06,0.31-2.07-2.07c-0.01-2.47,0.02-4.95-0.01-7.42
			c-0.01-0.79,0.21-1.18,1.06-1.1c0.55,0.05,1.13-0.06,1.67,0.04C52.85,65.63,53.12,65.97,53.53,66.27z"/>
		<path class="st1" d="M105.59,29.29c-1.67,1.27-4.48,1.2-6.32-0.34c-1.8-1.51-2.33-4.54-1.19-6.81c1.35-2.68,3.71-3.47,7.85-2.49
			c0-1.17,0-2.3,0-3.42c0-1.5,0.01-1.52,1.49-1.5c2.31,0.02,2.07-0.29,2.08,2.05c0.01,3.97-0.02,7.94,0.02,11.91
			c0.01,0.97-0.31,1.34-1.26,1.23c-0.41-0.05-0.85,0.06-1.25-0.03C106.61,29.8,106.25,29.57,105.59,29.29z M106.05,24.57
			c-0.01-1.85-0.88-2.84-2.47-2.81c-1.49,0.02-2.47,1.17-2.47,2.89c0,1.7,1.01,2.84,2.52,2.83
			C105.14,27.46,106.06,26.35,106.05,24.57z"/>
		<path class="st1" d="M88.06,25.57c0.24,1.68,2.22,2.42,3.78,1.54c1.22-0.69,2.44-0.84,3.95-0.44c-0.28,1.28-1.05,2.17-2.18,2.72
			c-2.09,1.01-4.25,1.06-6.36,0.1c-2.18-0.99-3.23-3.47-2.72-6.1c0.45-2.32,2.49-4.1,4.92-4.27c3.78-0.27,6.12,1.5,6.58,4.98
			c0.16,1.22,0.01,1.4-1.22,1.41c-1.88,0.01-3.76,0-5.64,0C88.8,25.52,88.43,25.55,88.06,25.57z M88.02,23.19c1.51,0,2.92,0,4.44,0
			c-0.4-1.22-1.29-1.44-2.24-1.42C89.28,21.79,88.36,21.97,88.02,23.19z"/>
		<path class="st1" d="M82.76,26.52c-0.34,1.89-1.82,3.18-4.09,3.51c-0.95,0.14-1.97,0.14-2.91-0.04c-2.88-0.55-4.63-2.9-4.37-5.72
			c0.28-3.05,2.51-5.13,5.53-5.16c3.68-0.04,5.7,1.71,6.1,5.16c0.11,0.99-0.21,1.29-1.18,1.26c-1.95-0.06-3.9-0.03-5.85-0.01
			c-0.32,0-0.63,0.16-0.95,0.24c0.15,0.34,0.22,0.74,0.45,1c0.69,0.79,2.34,1.06,3.28,0.34C80.04,26.15,81.35,26.6,82.76,26.52z
			M79.36,23.21c-0.33-1.08-1.12-1.58-2.33-1.44c-0.87,0.1-1.77,0.26-1.99,1.44C76.55,23.21,77.95,23.21,79.36,23.21z"/>
		<path class="st1" d="M50.35,94.73c0.29,1.81,2.4,2.58,3.9,1.51c1.25-0.89,2.5-0.43,3.92-0.5c-0.4,1.51-1.24,2.43-2.46,2.97
			c-1.93,0.85-3.93,0.9-5.89,0.12c-2.2-0.88-3.44-3.28-3.05-5.73c0.43-2.69,2.36-4.57,4.91-4.77c3.36-0.27,5.69,1.13,6.44,3.88
			c0.02,0.07,0.05,0.13,0.06,0.2c0.5,2.14,0.36,2.32-1.82,2.32C54.39,94.73,52.42,94.73,50.35,94.73z M54.77,92.42
			c-0.39-1.21-1.29-1.44-2.23-1.43c-0.93,0.01-1.84,0.21-2.24,1.43C51.82,92.42,53.21,92.42,54.77,92.42z"/>
		<path class="st1" d="M47.19,26.58c-0.4,1.37-1.14,2.25-2.23,2.8c-2.01,1-4.11,1.07-6.17,0.21c-2.31-0.96-3.47-3.44-2.97-6.07
			c0.45-2.41,2.48-4.22,4.93-4.4c3.62-0.27,5.96,1.36,6.54,4.54c0.3,1.62,0.12,1.85-1.48,1.85c-1.81,0-3.62,0-5.44,0
			c-0.34,0-0.67,0.03-1.02,0.05c0.23,1.73,2.42,2.54,3.91,1.45C44.52,26.11,45.77,26.58,47.19,26.58z M39.4,23.18
			c1.46,0,2.85,0,4.26,0c-0.29-1.03-0.87-1.41-2.04-1.43C40.38,21.73,39.7,22.15,39.4,23.18z"/>
		<path class="st1" d="M72.47,71.73c0.21,1.77,2.39,2.59,3.89,1.5c1.23-0.9,2.48-0.45,3.89-0.42c-0.34,1.34-1.08,2.19-2.11,2.73
			c-2.03,1.07-4.16,1.13-6.25,0.27c-2.23-0.92-3.42-3.36-3.01-5.86c0.43-2.55,2.44-4.43,4.95-4.62c3.49-0.26,5.81,1.24,6.49,4.22
			c0.05,0.24,0.09,0.48,0.11,0.72c0.09,1.41,0.05,1.45-1.4,1.45C76.85,71.73,74.67,71.73,72.47,71.73z M72.41,69.42
			c1.58,0,2.97,0,4.46,0c-0.34-1.2-1.22-1.41-2.14-1.43C73.79,67.96,72.86,68.11,72.41,69.42z"/>
		<path class="st1" d="M60.92,48.66c0.4,1.68,2.42,2.36,3.93,1.38c0.99-0.64,2.49-0.77,3.84-0.3c-0.28,1.19-1.03,2.02-2.06,2.57
			c-2.02,1.08-4.15,1.14-6.25,0.28c-2.24-0.91-3.43-3.34-3.02-5.85c0.42-2.55,2.42-4.43,4.94-4.63c3.48-0.27,5.81,1.23,6.5,4.2
			c0.04,0.17,0.08,0.34,0.1,0.51c0.17,1.57,0.08,1.67-1.47,1.68c-2.09,0.01-4.18,0.01-6.27,0.03C61.11,48.54,61.05,48.6,60.92,48.66z
			M65.27,46.22c-0.27-1.09-1.1-1.61-2.4-1.45c-0.82,0.1-1.71,0.24-1.88,1.45C62.46,46.22,63.82,46.22,65.27,46.22z"/>
		<path class="st1" d="M41.62,76.32c-4.14,0-6.78-3.33-5.63-7.15c0.63-2.1,2.17-3.24,4.25-3.72c3.03-0.69,6.01,0.63,7.13,3.15
			c1.6,3.59-0.82,7.47-4.82,7.71C42.25,76.34,41.94,76.32,41.62,76.32z M44.22,70.83c-0.01-1.78-0.95-2.87-2.47-2.86
			c-1.43,0.01-2.5,1.2-2.5,2.78c0,1.7,1.12,2.96,2.6,2.93C43.33,73.64,44.22,72.57,44.22,70.83z"/>
		<path class="st1" d="M40.72,53.12c-4.42,0-7.13-3.64-5.59-7.55c0.75-1.91,2.25-2.94,4.21-3.36c3.14-0.67,6.19,0.78,7.14,3.48
			C47.78,49.41,45.52,53.19,40.72,53.12z M38.32,47.55c-0.01,1.74,0.96,2.91,2.43,2.92c1.48,0.01,2.54-1.19,2.53-2.86
			c-0.02-1.69-1.06-2.86-2.54-2.86C39.25,44.76,38.33,45.83,38.32,47.55z"/>
		<path class="st1" d="M86.9,99.33c-4.39,0-7.1-3.7-5.53-7.59c0.75-1.86,2.21-2.88,4.14-3.3c3.18-0.7,6.27,0.77,7.21,3.51
			C94,95.69,91.69,99.43,86.9,99.33z M84.55,93.79c0,1.74,0.99,2.9,2.46,2.89c1.44,0,2.47-1.15,2.5-2.78
			c0.03-1.72-1.06-2.96-2.57-2.93C85.45,91,84.55,92.06,84.55,93.79z"/>
		<path class="st1" d="M86.06,66.1c0.97-0.25,1.98-0.7,3-0.74c2.64-0.12,4.2,1.36,4.3,4c0.07,1.95,0,3.9,0.02,5.85
			c0.01,0.67-0.26,0.93-0.93,0.92c-3.09-0.06-2.62,0.42-2.66-2.53c-0.02-1.25-0.01-2.51-0.02-3.76c0-1.01-0.48-1.65-1.49-1.84
			c-0.91-0.17-1.83,0.34-2.15,1.27c-0.17,0.48-0.25,1.02-0.26,1.53c-0.03,1.43-0.04,2.85-0.01,4.28c0.02,0.73-0.19,1.08-1,1.06
			c-2.97-0.07-2.43,0.35-2.47-2.38c-0.03-2.4,0.02-4.8-0.02-7.2c-0.01-0.77,0.24-1.09,1.02-1.02c0.45,0.04,0.92-0.07,1.35,0.03
			C85.21,65.65,85.63,65.91,86.06,66.1z"/>
		<path class="st1" d="M113.78,91.58c-1.27-0.17-2.61,0.46-3.82-0.69c-0.38-0.36-1.3-0.2-1.97-0.17c-0.19,0.01-0.47,0.4-0.51,0.64
			c-0.02,0.16,0.29,0.47,0.5,0.54c0.56,0.18,1.15,0.25,1.72,0.4c0.94,0.24,1.91,0.43,2.8,0.79c1.14,0.46,1.84,1.28,1.85,2.64
			c0,1.38-0.54,2.4-1.77,2.93c-2.28,0.98-4.61,1.03-6.87-0.07c-1.09-0.53-1.9-1.39-2.03-2.88c1.36,0.1,2.66-0.53,3.93,0.62
			c0.53,0.48,1.61,0.41,2.45,0.45c0.26,0.01,0.54-0.42,0.81-0.65c-0.25-0.25-0.45-0.65-0.74-0.73c-0.76-0.23-1.57-0.28-2.35-0.47
			c-0.77-0.2-1.57-0.39-2.26-0.75c-1.99-1.04-2.09-3.71-0.22-4.97c1.88-1.27,5.68-1.26,7.44,0.15c0.59,0.47,0.94,1.25,1.4,1.89
			C114.01,91.35,113.9,91.47,113.78,91.58z"/>
		<path class="st1" d="M71.03,92.36c-1.33-0.15-2.73,0.66-3.89-0.82c-0.63-0.81-1.71-0.76-2.6-0.26c-1.09,0.61-1.28,1.72-1.2,2.81
			c0.07,1.02,0.37,2.02,1.5,2.42c1.16,0.42,1.99-0.02,2.88-0.84c0.95-0.88,2.22-0.24,3.37-0.34c-0.1,2.53-2.5,4.07-5.97,4
			c-3.14-0.06-5.31-2.31-5.29-5.51c0.01-3.14,2.33-5.46,5.49-5.49C68.61,88.29,70.95,89.88,71.03,92.36z"/>
		<path class="st1" d="M74.05,94.22c0-0.73-0.02-1.46,0.01-2.19c0.03-0.62-0.22-0.93-0.85-0.85c-1.09,0.14-1.04-0.59-1.04-1.32
			c0-0.73-0.07-1.47,1.04-1.32c0.73,0.09,0.86-0.33,0.86-0.95c0.01-2.33-0.42-2.13,2.29-2.18c0.94-0.02,1.28,0.32,1.16,1.21
			c-0.02,0.17,0,0.35,0,0.52c0,1.37,0.01,1.45,1.34,1.38c1.11-0.06,1.14,0.53,1.15,1.35c0.01,0.84-0.09,1.49-1.17,1.31
			c-1.05-0.17-1.45,0.25-1.34,1.32c0.09,0.86,0.01,1.74,0.03,2.61c0.02,0.83,0.3,1.45,1.28,1.38c0.68-0.05,0.86,0.33,0.79,0.9
			c-0.08,0.62,0.36,1.55-0.71,1.67c-0.89,0.1-1.82,0.11-2.7-0.04c-1.34-0.22-2.02-1.12-2.11-2.6c-0.05-0.73-0.01-1.46-0.01-2.19
			C74.06,94.22,74.06,94.22,74.05,94.22z"/>
		<path class="st1" d="M52.41,43.42c0.99-0.45,1.89-0.94,2.85-1.27c0.67-0.23,1.16,0.07,1.09,0.9c-0.02,0.24-0.03,0.49,0,0.73
			c0.11,0.9-0.14,1.35-1.16,1.51c-1.93,0.29-2.75,1.33-2.81,3.27c-0.04,1.11-0.04,2.23-0.02,3.34c0.01,0.68-0.2,1.02-0.96,1.01
			c-3.02-0.07-2.58,0.4-2.61-2.48c-0.02-2.33,0.02-4.66-0.02-7c-0.01-0.87,0.3-1.22,1.16-1.12c0.27,0.03,0.56,0,0.83,0
			C52.09,42.32,52.09,42.32,52.41,43.42z"/>
		<path class="st1" d="M98.3,88.54c0.09,0.53,0.15,0.89,0.24,1.41c0.29-0.22,0.48-0.39,0.7-0.51c0.59-0.34,1.17-0.77,1.81-0.98
			c1.22-0.39,1.5-0.13,1.52,1.12c0,0.31-0.01,0.63,0,0.94c0.01,0.52-0.16,0.79-0.75,0.9c-2.55,0.49-3.2,1.28-3.25,3.88
			c-0.02,1.01-0.02,2.02-0.02,3.03c0,0.56-0.25,0.81-0.83,0.8c-3.23-0.04-2.68,0.39-2.71-2.47c-0.03-2.33,0.02-4.67-0.02-7
			c-0.02-0.87,0.3-1.19,1.16-1.13C96.86,88.58,97.58,88.54,98.3,88.54z"/>
		<path class="st1" d="M41.77,89.75c0.98-0.47,1.93-1,2.93-1.38c0.61-0.23,1.07,0.04,1.02,0.84c-0.04,0.65-0.01,1.31-0.01,2.02
			c-0.35,0.07-0.61,0.13-0.87,0.18c-2.15,0.42-3.03,1.43-3.1,3.64c-0.03,1.08-0.02,2.15-0.01,3.23c0.01,0.55-0.18,0.79-0.78,0.84
			c-2.69,0.21-2.69,0.23-2.69-2.48c0-2.36,0.02-4.73-0.01-7.09c-0.01-0.76,0.24-1.11,1.02-1.03c0.31,0.03,0.63,0,0.94,0
			C41.65,88.54,41.65,88.54,41.77,89.75z"/>
		<path class="st1" d="M35.67,93.85c0,1.46-0.01,2.93,0.01,4.39c0.01,0.6-0.19,0.9-0.84,0.89c-3.21-0.04-2.58,0.37-2.62-2.44
			c-0.04-2.37,0.01-4.74-0.02-7.11c-0.01-0.74,0.21-1.07,1-1.05c2.95,0.07,2.41-0.34,2.47,2.4C35.69,91.9,35.67,92.87,35.67,93.85
			C35.67,93.85,35.67,93.85,35.67,93.85z"/>
		<path class="st1" d="M33.95,86.78c-0.31,0-0.63-0.01-0.94,0c-0.59,0.03-0.77-0.26-0.8-0.82c-0.13-2.03-0.15-2.05,1.89-2.02
			c0.5,0.01,1.37,0.07,1.42,0.26c0.18,0.72,0.24,1.56,0.01,2.24c-0.1,0.29-1,0.32-1.54,0.47C33.97,86.87,33.96,86.83,33.95,86.78z"/>

		<path class="st1" d="M175.11,231.34c-0.01,4.89-3.82,8.65-8.74,8.63c-4.89-0.01-8.65-3.82-8.64-8.74c0.01-4.89,3.82-8.65,8.74-8.63
			C171.36,222.62,175.12,226.42,175.11,231.34z"/>
		<path class="st2" d="M196.69,209.77c-0.01,4.82-3.91,8.65-8.78,8.63c-4.8-0.02-8.62-3.94-8.6-8.81c0.03-4.73,3.92-8.56,8.71-8.56
			C192.86,201.03,196.7,204.91,196.69,209.77z"/>
		<path class="st2" d="M166.45,218.4c-4.86,0-8.71-3.85-8.71-8.7c0-4.84,3.87-8.68,8.73-8.68c4.76,0.01,8.63,3.87,8.64,8.63
			C175.12,214.51,171.28,218.39,166.45,218.4z"/>
		<path class="st2" d="M67.49,123.69c0,4.84-3.87,8.69-8.72,8.68c-4.83-0.01-8.67-3.89-8.65-8.76c0.01-4.76,3.89-8.61,8.65-8.61
			C63.63,114.99,67.49,118.84,67.49,123.69z"/>
		<path class="st2" d="M80.43,115c4.82,0.01,8.66,3.9,8.65,8.76c-0.02,4.81-3.93,8.63-8.8,8.61c-4.74-0.02-8.58-3.91-8.58-8.69
			C71.7,118.84,75.57,114.99,80.43,115z"/>
		<path class="st2" d="M89.07,209.78c-0.01,4.81-3.92,8.64-8.79,8.62c-4.8-0.02-8.62-3.94-8.59-8.82c0.03-4.73,3.93-8.56,8.72-8.55
			C85.24,201.03,89.09,204.91,89.07,209.78z"/>
		<path class="st2" d="M58.74,201.03c4.86-0.01,8.75,3.83,8.75,8.66c0.01,4.86-3.84,8.72-8.69,8.71c-4.78,0-8.66-3.84-8.68-8.59
			C50.1,204.94,53.93,201.04,58.74,201.03z"/>
		<path class="st2" d="M175.11,123.74c-0.01,4.82-3.91,8.65-8.78,8.63c-4.8-0.02-8.62-3.94-8.6-8.81c0.03-4.73,3.92-8.56,8.71-8.56
			C171.28,115,175.12,118.88,175.11,123.74z"/>
		<path class="st2" d="M188,115c4.85,0,8.7,3.86,8.69,8.72c-0.01,4.83-3.89,8.67-8.75,8.66c-4.76-0.01-8.62-3.88-8.62-8.65
			C179.31,118.87,183.15,115,188,115z"/>
		<path class="st2" d="M89.07,231.28c0,4.85-3.86,8.7-8.72,8.69c-4.83-0.01-8.67-3.89-8.66-8.75c0.01-4.76,3.88-8.61,8.65-8.62
			C85.2,222.59,89.07,226.44,89.07,231.28z"/>
		<path class="st2" d="M67.49,231.26c0,4.86-3.85,8.71-8.7,8.71c-4.84,0-8.69-3.87-8.68-8.73c0.01-4.76,3.87-8.63,8.63-8.64
			C63.61,222.59,67.49,226.43,67.49,231.26z"/>
		<path class="st1" d="M153.53,231.27c0,4.9-3.72,8.7-8.53,8.71c-4.82,0.01-8.56-3.78-8.57-8.67c0-4.9,3.72-8.7,8.53-8.71
			C149.78,222.6,153.53,226.38,153.53,231.27z"/>
		<path class="st2" d="M80.29,196.82c-4.83-0.02-8.62-3.84-8.59-8.64c0.03-4.77,3.88-8.47,8.79-8.45c4.83,0.02,8.62,3.84,8.59,8.64
			C89.04,193.14,85.19,196.84,80.29,196.82z"/>
		<path class="st2" d="M153.53,209.68c0.01,4.87-3.74,8.71-8.52,8.72c-4.79,0.01-8.57-3.8-8.58-8.65c-0.01-4.87,3.74-8.71,8.52-8.72
			C149.75,201.02,153.52,204.83,153.53,209.68z"/>
		<path class="st2" d="M217.99,209.74c-0.01,4.85-3.78,8.67-8.58,8.66c-4.78-0.01-8.52-3.84-8.52-8.72c0.01-4.85,3.78-8.67,8.58-8.66
			C214.25,201.04,218,204.87,217.99,209.74z"/>
		<path class="st2" d="M239.57,209.76c-0.01,4.85-3.8,8.65-8.6,8.63c-4.77-0.02-8.51-3.86-8.5-8.74c0.01-4.85,3.8-8.65,8.6-8.63
			C235.84,201.04,239.58,204.88,239.57,209.76z"/>
		<path class="st2" d="M110.37,231.27c0,4.87-3.75,8.7-8.53,8.7c-4.79,0-8.56-3.81-8.56-8.67c0-4.87,3.75-8.7,8.53-8.7
			C106.6,222.6,110.37,226.42,110.37,231.27z"/>
		<path class="st2" d="M131.95,231.32c0,4.85-3.78,8.67-8.58,8.66c-4.78-0.01-8.53-3.84-8.52-8.71c0.01-4.86,3.78-8.67,8.58-8.66
			C128.21,222.61,131.96,226.44,131.95,231.32z"/>
		<path class="st2" d="M114.86,209.66c0.01-4.85,3.8-8.65,8.6-8.64c4.77,0.02,8.51,3.86,8.5,8.74c-0.01,4.85-3.8,8.65-8.6,8.64
			C118.58,218.38,114.85,214.54,114.86,209.66z"/>
		<path class="st2" d="M93.28,123.66c0.01-4.86,3.78-8.67,8.57-8.66c4.78,0.01,8.53,3.84,8.52,8.71c-0.01,4.86-3.78,8.67-8.57,8.66
			C97.02,132.36,93.27,128.53,93.28,123.66z"/>
		<path class="st2" d="M114.86,123.65c0.01-4.85,3.79-8.66,8.59-8.65c4.77,0.01,8.52,3.85,8.51,8.73c-0.01,4.85-3.79,8.66-8.59,8.65
			C118.59,132.36,114.85,128.52,114.86,123.65z"/>
		<path class="st2" d="M153.53,123.73c-0.01,4.85-3.79,8.66-8.59,8.65c-4.77-0.01-8.52-3.85-8.51-8.73c0.01-4.85,3.79-8.66,8.59-8.65
			C149.8,115.01,153.54,118.85,153.53,123.73z"/>
		<path class="st2" d="M217.99,123.67c0,4.87-3.75,8.69-8.54,8.7c-4.79,0-8.56-3.82-8.56-8.67c0-4.87,3.75-8.69,8.54-8.7
			C214.22,114.99,217.99,118.82,217.99,123.67z"/>
		<path class="st2" d="M239.57,123.69c0,4.86-3.76,8.68-8.55,8.68c-4.78,0-8.54-3.83-8.54-8.69c0-4.86,3.76-8.68,8.55-8.68
			C235.81,115,239.57,118.83,239.57,123.69z"/>
		<path class="st2" d="M58.81,153.67c-4.86,0-8.69-3.76-8.69-8.54c0-4.79,3.82-8.55,8.68-8.55c4.86,0,8.69,3.76,8.69,8.54
			C67.49,149.91,63.67,153.67,58.81,153.67z"/>
		<path class="st2" d="M80.32,136.58c4.89-0.01,8.73,3.71,8.75,8.48c0.02,4.8-3.78,8.6-8.62,8.61c-4.89,0.01-8.73-3.71-8.75-8.48
			C71.68,140.39,75.48,136.59,80.32,136.58z"/>
		<path class="st2" d="M166.41,153.67c-4.86,0-8.68-3.77-8.68-8.56c0-4.78,3.83-8.54,8.7-8.53c4.86,0,8.68,3.77,8.68,8.56
			C175.11,149.91,171.28,153.67,166.41,153.67z"/>
		<path class="st2" d="M187.94,153.67c-4.84-0.01-8.65-3.81-8.63-8.61c0.02-4.77,3.86-8.5,8.75-8.49c4.84,0.01,8.65,3.81,8.63,8.61
			C196.67,149.95,192.83,153.68,187.94,153.67z"/>
		<path class="st2" d="M58.78,158.15c4.87-0.01,8.71,3.74,8.72,8.52c0.01,4.79-3.8,8.57-8.66,8.58c-4.87,0.01-8.71-3.74-8.72-8.52
			C50.11,161.93,53.92,158.16,58.78,158.15z"/>
		<path class="st2" d="M80.45,158.15c4.84,0.02,8.64,3.81,8.62,8.62c-0.02,4.77-3.87,8.49-8.76,8.48c-4.84-0.01-8.64-3.81-8.62-8.62
			C71.72,161.86,75.57,158.14,80.45,158.15z"/>
		<path class="st2" d="M166.38,175.24c-4.85-0.01-8.66-3.79-8.65-8.59c0.01-4.77,3.85-8.51,8.73-8.51c4.85,0.01,8.66,3.79,8.65,8.59
			C175.1,171.51,171.26,175.25,166.38,175.24z"/>
		<path class="st2" d="M188.01,175.24c-4.86,0-8.69-3.76-8.69-8.54c0-4.79,3.82-8.55,8.68-8.55c4.86,0,8.69,3.76,8.69,8.54
			C196.69,171.48,192.87,175.24,188.01,175.24z"/>
		<path class="st2" d="M58.84,179.73c4.85,0.01,8.66,3.79,8.65,8.59c-0.01,4.77-3.85,8.51-8.73,8.51c-4.85-0.01-8.66-3.79-8.65-8.59
			C50.13,183.46,53.97,179.72,58.84,179.73z"/>
		<path class="st2" d="M166.48,196.82c-4.88,0.01-8.73-3.72-8.75-8.49c-0.02-4.8,3.78-8.59,8.63-8.61c4.88-0.01,8.73,3.72,8.75,8.49
			C175.13,193.01,171.33,196.81,166.48,196.82z"/>
		<path class="st2" d="M187.96,196.82c-4.85-0.01-8.66-3.79-8.65-8.59c0.01-4.77,3.85-8.52,8.73-8.51c4.85,0.01,8.66,3.79,8.65,8.59
			C196.68,193.09,192.84,196.83,187.96,196.82z"/>
		<path class="st2" d="M110.37,209.7c0,4.87-3.75,8.69-8.54,8.7c-4.79,0-8.56-3.82-8.56-8.67c0-4.87,3.75-8.69,8.54-8.7
			C106.6,201.02,110.37,204.84,110.37,209.7z"/>
		<path class="st1" d="M110.37,145.2c-0.03,4.73-3.86,8.49-8.63,8.47c-4.73-0.03-8.49-3.86-8.47-8.63c0.03-4.73,3.86-8.49,8.63-8.47
			C106.64,136.6,110.4,140.43,110.37,145.2z"/>
		<path class="st2" d="M101.88,179.73c4.7,0.02,8.51,3.88,8.49,8.61c-0.02,4.7-3.88,8.51-8.61,8.49c-4.7-0.02-8.51-3.88-8.49-8.61
			C93.3,183.51,97.15,179.71,101.88,179.73z"/>
		<path class="st2" d="M123.44,196.82c-4.73,0.01-8.57-3.8-8.59-8.51c-0.01-4.72,3.8-8.57,8.51-8.59c4.73-0.01,8.57,3.8,8.59,8.51
			C131.96,192.96,128.15,196.81,123.44,196.82z"/>
		<path class="st2" d="M144.99,196.82c-4.72,0-8.55-3.82-8.56-8.53c0-4.72,3.82-8.55,8.54-8.56c4.72,0,8.55,3.82,8.56,8.53
			C153.53,192.98,149.71,196.82,144.99,196.82z"/>
		<path class="st2" d="M209.47,196.82c-4.72,0.01-8.57-3.8-8.58-8.51c-0.01-4.72,3.81-8.57,8.51-8.58c4.72-0.01,8.57,3.8,8.58,8.51
			C218,192.97,214.18,196.81,209.47,196.82z"/>
		<path class="st2" d="M239.57,188.33c-0.02,4.7-3.88,8.51-8.61,8.49c-4.7-0.02-8.51-3.88-8.49-8.61c0.02-4.7,3.88-8.51,8.61-8.49
			C235.78,179.75,239.59,183.61,239.57,188.33z"/>
		<path class="st2" d="M131.95,145.12c0,4.72-3.83,8.54-8.55,8.54c-4.72,0-8.55-3.83-8.54-8.55c0-4.72,3.83-8.54,8.55-8.54
			C128.13,136.58,131.95,140.4,131.95,145.12z"/>
		<path class="st2" d="M153.53,145.08c0.01,4.72-3.8,8.57-8.51,8.58c-4.73,0.01-8.57-3.8-8.59-8.51c-0.01-4.72,3.8-8.57,8.51-8.58
			C149.67,136.56,153.52,140.38,153.53,145.08z"/>
		<path class="st2" d="M101.84,175.24c-4.72,0-8.55-3.82-8.56-8.53c0-4.72,3.82-8.55,8.54-8.56c4.72,0,8.55,3.82,8.56,8.53
			C110.37,171.41,106.55,175.24,101.84,175.24z"/>
		<path class="st2" d="M131.95,166.68c0.01,4.72-3.82,8.56-8.53,8.57c-4.72,0.01-8.56-3.81-8.57-8.52c-0.01-4.72,3.82-8.56,8.53-8.57
			C128.1,158.15,131.94,161.97,131.95,166.68z"/>
		<path class="st2" d="M153.53,166.65c0.02,4.73-3.79,8.58-8.5,8.6c-4.73,0.02-8.58-3.79-8.6-8.5c-0.02-4.73,3.79-8.58,8.5-8.6
			C149.66,158.14,153.51,161.95,153.53,166.65z"/>
		<path class="st2" d="M217.99,145.07c0.02,4.73-3.79,8.58-8.49,8.6c-4.73,0.02-8.58-3.79-8.6-8.49c-0.02-4.73,3.79-8.58,8.49-8.6
			C214.12,136.56,217.97,140.37,217.99,145.07z"/>
		<path class="st2" d="M239.57,145.08c0.01,4.72-3.8,8.57-8.51,8.58c-4.73,0.01-8.57-3.8-8.59-8.51c-0.01-4.72,3.8-8.57,8.51-8.58
			C235.71,136.56,239.56,140.38,239.57,145.08z"/>
		<path class="st2" d="M209.4,158.15c4.73-0.01,8.58,3.8,8.59,8.5c0.01,4.72-3.8,8.57-8.51,8.59c-4.72,0.01-8.58-3.8-8.59-8.5
			C200.88,162.02,204.69,158.17,209.4,158.15z"/>
		<path class="st2" d="M239.57,166.69c0,4.72-3.82,8.55-8.54,8.55c-4.72,0-8.55-3.82-8.55-8.54c0-4.72,3.82-8.55,8.54-8.55
			C235.74,158.15,239.57,161.97,239.57,166.69z"/>
	</svg>
